<?xml version="1.0" encoding="UTF-8" standalone="no"?>
<svg width="60px" height="60px" viewBox="0 0 60 60" version="1.1" xmlns="http://www.w3.org/2000/svg" xmlns:xlink="http://www.w3.org/1999/xlink" xmlns:sketch="http://www.bohemiancoding.com/sketch/ns">
    <!-- Generator: Sketch 3.1.1 (8761) - http://www.bohemiancoding.com/sketch -->
    <title>check</title>
    <desc>Created with Sketch.</desc>
    <defs></defs>
    <g id="Page-1" stroke="none" stroke-width="1" fill="none" fill-rule="evenodd" sketch:type="MSPage">
        <g id="check" sketch:type="MSLayerGroup">
            <g id="Group" sketch:type="MSShapeGroup">
                <circle id="Oval-1" fill-opacity="0.146937274" fill="#000000" cx="30" cy="30" r="29"></circle>
                <path d="M41.926,20.443 L23.72,37.436 L18.099,31.815 C17.708,31.424 17.076,31.424 16.685,31.815 C16.294,32.205 16.294,32.838 16.685,33.229 L22.989,39.534 C23.183,39.729 23.44,39.827 23.696,39.827 C23.941,39.827 24.186,39.738 24.379,39.558 L43.292,21.906 C43.695,21.529 43.717,20.896 43.341,20.493 C42.962,20.087 42.331,20.065 41.926,20.443 L41.926,20.443 Z" id="Shape" fill="#FFFFFF"></path>
                <path d="M30,0 C13.458,0 0,13.458 0,30 C0,46.542 13.458,60 30,60 C46.542,60 60,46.542 60,30 C60,13.458 46.542,0 30,0 L30,0 Z M30,58 C14.56,58 2,45.44 2,30 C2,14.56 14.56,2 30,2 C45.439,2 58,14.56 58,30 C58,45.44 45.439,58 30,58 L30,58 Z" id="Shape" fill="#FFFFFF"></path>
            </g>
        </g>
    </g>
</svg>