<?xml version="1.0" encoding="UTF-8" standalone="no"?>
<svg width="58px" height="60px" viewBox="0 0 58 60" version="1.1" xmlns="http://www.w3.org/2000/svg" xmlns:xlink="http://www.w3.org/1999/xlink" xmlns:sketch="http://www.bohemiancoding.com/sketch/ns">
    <!-- Generator: Sketch 3.1.1 (8761) - http://www.bohemiancoding.com/sketch -->
    <title>bucket</title>
    <desc>Created with Sketch.</desc>
    <defs></defs>
    <g id="Page-1" stroke="none" stroke-width="1" fill="none" fill-rule="evenodd" sketch:type="MSPage">
        <g id="Book__Dashboard-2" sketch:type="MSArtboardGroup" transform="translate(-1145.000000, -395.000000)" fill="#231F20">
            <g id="bucket" sketch:type="MSLayerGroup" transform="translate(1146.000000, 395.000000)">
                <g id="Group" sketch:type="MSShapeGroup">
                    <path d="M13.531,49.707 C14.673,50.849 16.167,51.477 17.738,51.477 C19.31,51.477 20.804,50.849 21.945,49.707 L39.652,32 L46.238,32 C46.638,32 47.001,31.761 47.158,31.393 C47.315,31.025 47.237,30.598 46.961,30.308 L24.961,7.308 C24.775,7.114 24.519,7.003 24.249,7 C24.023,7.002 23.721,7.102 23.531,7.293 L23.238,7.586 L23.238,5 C23.238,2.243 20.995,0 18.238,0 L16.238,0 C13.481,0 11.238,2.243 11.238,5 L11.238,19.586 L1.531,29.293 C-0.827,31.652 -0.827,35.348 1.531,37.707 L13.531,49.707 L13.531,49.707 Z M13.238,5 C13.238,3.346 14.584,2 16.238,2 L18.238,2 C19.892,2 21.238,3.346 21.238,5 L21.238,9.586 L13.238,17.586 L13.238,5 L13.238,5 Z M2.945,30.707 L12.945,20.707 C12.945,20.707 12.945,20.707 12.946,20.706 L21.238,12.414 L21.238,26 C21.238,26.552 21.685,27 22.238,27 C22.791,27 23.238,26.552 23.238,26 L23.238,10.415 L24.222,9.431 L43.898,30 L39.238,30 C38.972,30 38.718,30.106 38.531,30.293 L20.531,48.293 C19.004,49.819 16.472,49.82 14.945,48.293 L2.945,36.293 C1.38,34.727 1.38,32.273 2.945,30.707 L2.945,30.707 Z" id="Shape"></path>
                    <path d="M48.37,38.504 C47.742,39.604 42.238,49.358 42.238,53 C42.238,57.056 45.182,60 49.238,60 C53.294,60 56.238,57.056 56.238,53 C56.238,49.358 50.734,39.604 50.106,38.504 C49.751,37.88 48.726,37.88 48.37,38.504 L48.37,38.504 Z M49.238,58 C46.294,58 44.238,55.944 44.238,53 C44.238,50.751 47.318,44.599 49.238,41.06 C51.158,44.598 54.238,50.75 54.238,53 C54.238,55.944 52.183,58 49.238,58 L49.238,58 Z" id="Shape"></path>
                </g>
            </g>
        </g>
    </g>
</svg>