<?xml version="1.0" encoding="UTF-8" standalone="no"?>
<svg width="60px" height="60px" viewBox="0 0 60 60" version="1.1" xmlns="http://www.w3.org/2000/svg" xmlns:xlink="http://www.w3.org/1999/xlink" xmlns:sketch="http://www.bohemiancoding.com/sketch/ns">
    <!-- Generator: Sketch 3.1.1 (8761) - http://www.bohemiancoding.com/sketch -->
    <title>edit-2</title>
    <desc>Created with Sketch.</desc>
    <defs></defs>
    <g id="Page-1" stroke="none" stroke-width="1" fill="none" fill-rule="evenodd" sketch:type="MSPage">
        <g id="edit-2" sketch:type="MSLayerGroup">
            <circle id="Oval-1" fill-opacity="0.146937274" fill="#000000" sketch:type="MSShapeGroup" cx="30" cy="30" r="29"></circle>
            <g id="Group" fill="#FFFFFF" sketch:type="MSShapeGroup">
                <path d="M37.4479416,16.7142607 C37.1626249,16.4289441 36.7014482,16.4289441 36.4161316,16.7142607 L20.3625109,32.7678814 C20.2895399,32.8408524 20.2362711,32.9262284 20.2005153,33.0167125 C20.1997856,33.0189016 20.1975965,33.020361 20.1968667,33.0225502 L16.5483166,42.5087805 C16.4446978,42.7780435 16.509642,43.0830623 16.7139608,43.2866514 C16.8533354,43.4252963 17.0401412,43.4997268 17.2298658,43.4997268 C17.3181607,43.4997268 17.4064556,43.4836731 17.4918317,43.4515659 L26.9780621,39.8030158 C26.9802512,39.802286 26.9817106,39.8000969 26.9838997,39.7993672 C27.0743838,39.7636114 27.1590301,39.7110723 27.2327309,39.6373716 L43.2863515,23.5837509 C43.5716681,23.2984343 43.5716681,22.8372576 43.2863515,22.5519409 L37.4479416,16.7142607 L37.4479416,16.7142607 Z M26.7160962,38.0896566 L21.9102259,33.2837863 L34.0131965,21.1808158 L38.8190667,25.986686 L26.7160962,38.0896566 L26.7160962,38.0896566 Z M21.1564354,34.5936159 L25.4062667,38.8434471 L18.5002909,41.4995916 L21.1564354,34.5936159 L21.1564354,34.5936159 Z M39.8508767,24.9548761 L35.0450064,20.1490058 L36.9320366,18.2619757 L41.7379068,23.0678459 L39.8508767,24.9548761 L39.8508767,24.9548761 Z" id="Shape"></path>
                <path d="M30,0 C13.458,0 0,13.458 0,30 C0,46.542 13.458,60 30,60 C46.542,60 60,46.542 60,30 C60,13.458 46.542,0 30,0 L30,0 Z M30,58 C14.56,58 2,45.44 2,30 C2,14.561 14.56,2 30,2 C45.44,2 58,14.561 58,30 C58,45.44 45.44,58 30,58 L30,58 Z" id="Shape"></path>
            </g>
        </g>
    </g>
</svg>