<?xml version="1.0" encoding="UTF-8" standalone="no"?>
<svg width="60px" height="60px" viewBox="0 0 60 60" version="1.1" xmlns="http://www.w3.org/2000/svg" xmlns:xlink="http://www.w3.org/1999/xlink" xmlns:sketch="http://www.bohemiancoding.com/sketch/ns">
    <!-- Generator: Sketch 3.1.1 (8761) - http://www.bohemiancoding.com/sketch -->
    <title>photo-1</title>
    <desc>Created with Sketch.</desc>
    <defs></defs>
    <g id="Page-1" stroke="none" stroke-width="1" fill="none" fill-rule="evenodd" sketch:type="MSPage">
        <g id="Book__Dashboard-2" sketch:type="MSArtboardGroup" transform="translate(-920.000000, -394.000000)" fill="#231F20">
            <g id="photo-1" sketch:type="MSLayerGroup" transform="translate(920.000000, 394.000000)">
                <g id="Group" sketch:type="MSShapeGroup">
                    <path d="M0,60 L60,60 L60,0 L0,0 L0,60 L0,60 Z M2,58 L2,46 L58,46 L58,58 L2,58 L2,58 Z M9.53,44 C11.474,39.783 15.792,32.261 19.913,32.261 C25.6,32.261 30.381,39.31 30.429,39.382 C30.62,39.668 30.909,39.832 31.291,39.826 C31.635,39.816 31.95,39.629 32.124,39.331 L39.726,26.299 C40.303,25.311 41.372,24.697 42.516,24.697 C43.747,24.697 44.853,25.381 45.408,26.491 L54.365,44 L9.53,44 L9.53,44 Z M58,2 L58,44 L56.612,44 L47.194,25.586 C46.303,23.803 44.511,22.695 42.517,22.695 C40.664,22.695 38.934,23.689 37.999,25.289 L31.158,37.017 C29.344,34.757 25.086,30.26 19.913,30.26 C13.716,30.261 8.625,41.026 7.337,44 L2,44 L2,2 L58,2 L58,2 Z" id="Shape"></path>
                    <path d="M15.836,22.012 C15.961,22.012 16.086,22.007 16.13,22 L23.646,21.999 C23.765,22.005 23.883,22.008 24,22.008 L24,22.008 C25.883,22.008 27.647,21.261 28.968,19.904 C30.279,18.558 31,16.771 31,14.87 C31,10.843 27.723,7.566 23.696,7.566 C20.467,7.566 17.7,9.649 16.755,12.652 C16.547,12.624 16.339,12.609 16.131,12.609 C13.494,12.609 11.348,14.755 11.348,17.391 C11.348,19.94 13.361,22.012 15.836,22.012 L15.836,22.012 Z M16.13,14.609 C16.46,14.609 16.796,14.674 17.129,14.804 L18.283,15.253 L18.478,14.03 C18.892,11.443 21.086,9.566 23.695,9.566 C26.62,9.566 28.999,11.945 28.999,14.87 C28.999,16.247 28.479,17.539 27.535,18.509 C26.594,19.475 25.339,20.008 24,20.008 L24,20.008 C23.916,20.008 23.831,20.006 23.695,20 L16.047,20.003 C14.569,20.123 13.347,18.909 13.347,17.391 C13.348,15.857 14.596,14.609 16.13,14.609 L16.13,14.609 Z" id="Shape"></path>
                </g>
            </g>
        </g>
    </g>
</svg>