<?xml version="1.0" encoding="UTF-8" standalone="no"?>
<svg width="46px" height="46px" viewBox="0 0 46 46" version="1.1" xmlns="http://www.w3.org/2000/svg" xmlns:xlink="http://www.w3.org/1999/xlink" xmlns:sketch="http://www.bohemiancoding.com/sketch/ns">
    <!-- Generator: Sketch 3.1.1 (8761) - http://www.bohemiancoding.com/sketch -->
    <title>user-2 + invited + Oval 3 + nyt_x5F_exporter_x5F_info</title>
    <desc>Created with Sketch.</desc>
    <defs>
        <path d="M0.616666667,37 L36.3833333,37 C36.72435,37 37,36.7237333 37,36.3833333 C37,36.2464333 36.9815,33.0015333 35.3800167,29.79795 C34.2792667,27.5983 30.65635,26.27185 25.6416167,24.4360333 C24.9330667,24.1764167 24.1955333,23.9069333 23.4333333,23.62265 L23.4333333,19.6346667 C23.9340667,19.0858333 25.2031667,17.4559833 25.3271167,14.92395 C25.6755333,14.65755 25.9548833,14.1549667 26.1152167,13.4729333 C26.3711333,12.38945 26.2354667,11.1012333 25.4381167,10.3846667 C25.4917667,10.2440667 25.55775,10.0775667 25.6200333,9.92155 C26.2101833,8.43415 27.3084667,5.66531667 26.8792667,3.51685 C26.39395,1.08718333 22.8573667,0 19.56745,0 C17.1649167,0 14.2388333,0.602483333 13.4026333,2.26255 C12.47825,2.34765 11.7709333,2.71333333 11.2954833,3.35405 C9.99246667,5.11093333 10.9581667,8.29601667 11.4767833,10.0072667 C11.5137833,10.1275167 11.5520167,10.2551667 11.5847,10.3643167 C10.7663833,11.0765667 10.6257833,12.3795833 10.8841667,13.47355 C11.0451167,14.1555833 11.32385,14.6581667 11.6722667,14.9245667 C11.7949833,17.4085 13.0344833,18.8724667 13.56605,19.3910833 L13.56605,23.62265 C12.8026167,23.9069333 12.0644667,24.17765 11.3546833,24.4372667 C6.34056667,26.2730833 2.71826667,27.5989167 1.61936667,29.7985667 C0.0185,33.0015333 0,36.2464333 0,36.3833333 C0,36.7237333 0.27565,37 0.616666667,37 L0.616666667,37 Z M2.7232,30.34925 C3.60318333,28.58805 7.2113,27.26715 11.7795667,25.59475 C12.61515,25.2888833 13.4908167,24.9682167 14.4004,24.6272 C14.6402833,24.5371667 14.8,24.30715 14.8,24.05 L14.8,19.1166667 C14.8,18.9267333 14.7118167,18.7472833 14.5619667,18.6301167 C14.5459333,18.6171667 12.89635,17.2999667 12.89635,14.5231167 C12.89635,14.22095 12.6786667,13.96935 12.3919167,13.9169333 C12.22295,13.7337833 11.9374333,12.9907 12.0102,12.21 C12.0441167,11.8511 12.1656,11.3818167 12.55595,11.18695 C12.765,11.0827333 12.8969667,10.86875 12.8969667,10.63565 C12.8969667,10.4475667 12.8353,10.2354333 12.6577,9.64898333 C12.26735,8.362 11.35345,5.3465 12.2864667,4.0885 C12.5917167,3.67656667 13.098,3.47676667 13.8349167,3.47676667 C14.1179667,3.47676667 14.3640167,3.28436667 14.4330833,3.00995 C14.6859167,1.99676667 16.8942,1.23333333 19.56745,1.23333333 C22.3492333,1.23333333 25.3382167,2.10098333 25.6699833,3.75858333 C26.02765,5.54876667 25.0163167,8.09745 24.47365,9.46645 C24.19245,10.1756167 24.1030333,10.4111833 24.1030333,10.63565 C24.1030333,10.8693667 24.235,11.0827333 24.44405,11.18695 C24.8344,11.3818167 24.9558833,11.8511 24.9898,12.21 C25.0625667,12.9907 24.77705,13.7331667 24.6080833,13.9169333 C24.3207167,13.96935 24.10365,14.22095 24.10365,14.5231167 C24.10365,17.3049 22.4146,18.9168667 22.3991833,18.93105 C22.27215,19.0482167 22.2,19.21225 22.2,19.3849167 L22.2,24.05 C22.2,24.30715 22.3597167,24.5371667 22.5996,24.6278167 C23.5085667,24.9682167 24.383,25.2882667 25.21735,25.5941333 C29.7862333,27.26715 33.3949667,28.58805 34.2761833,30.3498667 C35.3504167,32.4983333 35.6507333,34.7195667 35.7333667,35.7666667 L1.26478333,35.7666667 C1.34741667,34.7214167 1.64526667,32.5057333 2.7232,30.34925 L2.7232,30.34925 Z" id="path-1"></path>
    </defs>
    <g id="Page-1" stroke="none" stroke-width="1" fill="none" fill-rule="evenodd" sketch:type="MSPage">
        <g id="user-2-+-invited-+-Oval-3-+-nyt_x5F_exporter_x5F_info" sketch:type="MSLayerGroup" transform="translate(1.000000, 1.000000)">
            <g id="invited-+-Oval-3-+-nyt_x5F_exporter_x5F_info">
                <g id="invited" sketch:type="MSShapeGroup" stroke="#DCDCDC">
                    <g id="Page-1">
                        <g id="circle">
                            <g id="Page-1">
                                <g id="Book__Dashboard">
                                    <g id="Chase-Replogle-2-+-Bitmap-13">
                                        <g id="Bitmap-4-+-+">
                                            <g id="Bitmap-4">
                                                <g id="Mask">
                                                    <circle id="Oval-3" cx="22" cy="22" r="22"></circle>
                                                </g>
                                            </g>
                                        </g>
                                    </g>
                                </g>
                            </g>
                        </g>
                    </g>
                </g>
                <g id="Oval-3" transform="translate(4.000000, 7.000000)">
                    <mask id="mask-2" sketch:name="Mask" fill="white">
                        <use xlink:href="#path-1"></use>
                    </mask>
                    <use id="Mask" sketch:type="MSShapeGroup" xlink:href="#path-1"></use>
                    <circle fill="#D8D8D8" sketch:type="MSShapeGroup" mask="url(#mask-2)" cx="18" cy="14" r="21"></circle>
                </g>
            </g>
        </g>
    </g>
</svg>