<?xml version="1.0" encoding="UTF-8" standalone="no"?>
<svg width="479px" height="63px" viewBox="0 0 479 63" version="1.1" xmlns="http://www.w3.org/2000/svg" xmlns:xlink="http://www.w3.org/1999/xlink" xmlns:sketch="http://www.bohemiancoding.com/sketch/ns">
    <!-- Generator: Sketch 3.1.1 (8761) - http://www.bohemiancoding.com/sketch -->
    <title>logo</title>
    <desc>Created with Sketch.</desc>
    <defs></defs>
    <g id="Page-1" stroke="none" stroke-width="1" fill="none" fill-rule="evenodd" sketch:type="MSPage">
        <g id="logo" sketch:type="MSLayerGroup" transform="translate(3.000000, 2.000000)">
            <g id="Page-1" sketch:type="MSShapeGroup">
                <g id="logo">
                    <g id="Page-1">
                        <g id="logo">
                            <g id="Page-1">
                                <g id="Portrait---6-Plus">
                                    <g id="BRANDCARDS-+-Rectangle-1-+-Rectangle-2-+-Line-+-Rectangle-1-+-Rectangle-2-+-Line-2">
                                        <g id="Rectangle-1-+-Rectangle-2-+-Line-2" transform="translate(-0.292041, 0.097874)">
                                            <rect id="Rectangle-1" stroke="#9B9B9B" stroke-width="2" fill="#FFFFFF" x="0" y="3.55271368e-15" width="60.9989395" height="58.0748619"></rect>
                                            <rect id="Rectangle-2" stroke="#979797" fill="#90D2AC" x="0" y="3.55271368e-15" width="60.9989395" height="35.3068762"></rect>
                                            <path d="M44.9473369,45.3847985 L16.063054,45.3847985" id="Line" stroke="#9B9B9B" stroke-width="3"></path>
                                        </g>
                                    </g>
                                </g>
                            </g>
                        </g>
                    </g>
                </g>
            </g>
            <path d="M88.46875,3.6015625 L104.464844,3.6015625 C111.753943,3.6015625 117.044905,4.6386615 120.337891,6.71289062 C123.630876,8.78711975 125.277344,12.0859149 125.277344,16.609375 C125.277344,19.6797029 124.556648,22.1992089 123.115234,24.1679688 C121.673821,26.1367286 119.757824,27.3203105 117.367188,27.71875 L117.367188,28.0703125 C120.625016,28.7968786 122.974602,30.15624 124.416016,32.1484375 C125.857429,34.140635 126.578125,36.789046 126.578125,40.09375 C126.578125,44.7812734 124.884783,48.4374869 121.498047,51.0625 C118.111311,53.6875131 113.511748,55 107.699219,55 L88.46875,55 L88.46875,3.6015625 Z M99.3671875,23.9570312 L105.695312,23.9570312 C108.648452,23.9570312 110.787103,23.5000046 112.111328,22.5859375 C113.435553,21.6718704 114.097656,20.1601668 114.097656,18.0507812 C114.097656,16.0820214 113.37696,14.6699262 111.935547,13.8144531 C110.494133,12.9589801 108.214859,12.53125 105.097656,12.53125 L99.3671875,12.53125 L99.3671875,23.9570312 Z M99.3671875,32.6054688 L99.3671875,46 L106.46875,46 C109.468765,46 111.683587,45.425787 113.113281,44.2773438 C114.542976,43.1289005 115.257812,41.3711056 115.257812,39.0039062 C115.257812,34.7382599 112.210968,32.6054688 106.117188,32.6054688 L99.3671875,32.6054688 Z M155.5375,14.9570312 C156.990632,14.9570312 158.197652,15.0624989 159.158594,15.2734375 L158.35,25.328125 C157.482808,25.0937488 156.428131,24.9765625 155.185938,24.9765625 C151.764046,24.9765625 149.098057,25.85546 147.187891,27.6132812 C145.277725,29.3711025 144.322656,31.8320154 144.322656,34.9960938 L144.322656,55 L133.6,55 L133.6,15.6953125 L141.721094,15.6953125 L143.303125,22.3046875 L143.830469,22.3046875 C145.049225,20.1015515 146.695693,18.3261786 148.769922,16.9785156 C150.844151,15.6308526 153.099988,14.9570312 155.5375,14.9570312 L155.5375,14.9570312 Z M187.414844,55 L185.340625,49.65625 L185.059375,49.65625 C183.254679,51.9296989 181.397275,53.505855 179.48711,54.3847656 C177.576944,55.2636763 175.086734,55.703125 172.016407,55.703125 C168.24295,55.703125 165.272277,54.6250108 163.104297,52.46875 C160.936318,50.3124892 159.852344,47.2422074 159.852344,43.2578125 C159.852344,39.0859166 161.311314,36.0097755 164.229297,34.0292969 C167.147281,32.0488182 171.547627,30.9531261 177.430469,30.7421875 L184.250782,30.53125 L184.250782,28.8085938 C184.250782,24.8241988 182.211739,22.8320312 178.133594,22.8320312 C174.992953,22.8320312 171.301584,23.7812405 167.059375,25.6796875 L163.508594,18.4375 C168.032054,16.0703007 173.047629,14.8867188 178.555469,14.8867188 C183.828933,14.8867188 187.871861,16.0351448 190.684375,18.3320312 C193.496889,20.6289177 194.903125,24.1210703 194.903125,28.8085938 L194.903125,55 L187.414844,55 Z M184.250782,36.7890625 L180.102344,36.9296875 C176.985141,37.023438 174.664852,37.5859323 173.141407,38.6171875 C171.617961,39.6484427 170.85625,41.2187395 170.85625,43.328125 C170.85625,46.3515776 172.590608,47.8632812 176.059375,47.8632812 C178.543763,47.8632812 180.530071,47.1484446 182.01836,45.71875 C183.506648,44.2890554 184.250782,42.3906368 184.250782,40.0234375 L184.250782,36.7890625 Z M239.823438,55 L229.100782,55 L229.100782,32.0429688 C229.100782,29.2070171 228.59688,27.0800852 227.589063,25.6621094 C226.581245,24.2441335 224.975793,23.5351562 222.772657,23.5351562 C219.772642,23.5351562 217.604695,24.5370994 216.26875,26.5410156 C214.932806,28.5449319 214.264844,31.8671643 214.264844,36.5078125 L214.264844,55 L203.542188,55 L203.542188,15.6953125 L211.733594,15.6953125 L213.175,20.7226562 L213.772657,20.7226562 C214.967975,18.8242093 216.614443,17.3886767 218.71211,16.4160156 C220.809777,15.4433545 223.194518,14.9570312 225.866407,14.9570312 C230.436742,14.9570312 233.905457,16.193347 236.272657,18.6660156 C238.639856,21.1386842 239.823438,24.7070079 239.823438,29.3710938 L239.823438,55 Z M260.907813,55.703125 C256.290602,55.703125 252.663686,53.9101742 250.026954,50.3242188 C247.390222,46.7382633 246.071876,41.769563 246.071876,35.4179688 C246.071876,28.972624 247.413659,23.9511899 250.097266,20.3535156 C252.780873,16.7558414 256.478102,14.9570312 261.189063,14.9570312 C266.1344,14.9570312 269.9078,16.878887 272.509376,20.7226562 L272.860938,20.7226562 C272.321873,17.7929541 272.052344,15.179699 272.052344,12.8828125 L272.052344,0.296875 L282.810157,0.296875 L282.810157,55 L274.583594,55 L272.509376,49.9023438 L272.052344,49.9023438 C269.614832,53.7695506 265.900026,55.703125 260.907813,55.703125 L260.907813,55.703125 Z M264.669532,47.1601562 C267.411733,47.1601562 269.421479,46.3632892 270.698829,44.7695312 C271.976179,43.1757733 272.673437,40.4687691 272.790626,36.6484375 L272.790626,35.4882812 C272.790626,31.2695102 272.140241,28.2461029 270.839454,26.4179688 C269.538666,24.5898346 267.423453,23.6757812 264.493751,23.6757812 C262.103114,23.6757812 260.24571,24.689443 258.921485,26.7167969 C257.59726,28.7441508 256.935157,31.6913869 256.935157,35.5585938 C256.935157,39.4258006 257.603119,42.3261622 258.939063,44.2597656 C260.275007,46.193369 262.185144,47.1601562 264.669532,47.1601562 L264.669532,47.1601562 Z M314.300782,11.9335938 C310.199199,11.9335938 307.023449,13.474594 304.773438,16.5566406 C302.523427,19.6386873 301.398438,23.9335662 301.398438,29.4414062 C301.398438,40.9024011 305.699176,46.6328125 314.300782,46.6328125 C317.910175,46.6328125 322.281225,45.7304778 327.414063,43.9257812 L327.414063,53.0664062 C323.195292,54.8242275 318.484402,55.703125 313.281251,55.703125 C305.804651,55.703125 300.085958,53.4355696 296.125001,48.9003906 C292.164043,44.3652117 290.183594,37.8555112 290.183594,29.3710938 C290.183594,24.027317 291.156241,19.3457232 293.101563,15.3261719 C295.046885,11.3066205 297.841779,8.2246201 301.486329,6.08007812 C305.130878,3.93553615 309.40232,2.86328125 314.300782,2.86328125 C319.292994,2.86328125 324.308569,4.07030043 329.347657,6.484375 L325.832032,15.34375 C323.910147,14.4296829 321.976573,13.6328159 320.031251,12.953125 C318.085928,12.2734341 316.175791,11.9335938 314.300782,11.9335938 L314.300782,11.9335938 Z M360.064845,55 L357.990626,49.65625 L357.709376,49.65625 C355.904679,51.9296989 354.047276,53.505855 352.13711,54.3847656 C350.226944,55.2636763 347.736735,55.703125 344.666407,55.703125 C340.892951,55.703125 337.922277,54.6250108 335.754298,52.46875 C333.586318,50.3124892 332.502345,47.2422074 332.502345,43.2578125 C332.502345,39.0859166 333.961314,36.0097755 336.879298,34.0292969 C339.797281,32.0488182 344.197628,30.9531261 350.08047,30.7421875 L356.900782,30.53125 L356.900782,28.8085938 C356.900782,24.8241988 354.86174,22.8320312 350.783595,22.8320312 C347.642954,22.8320312 343.951585,23.7812405 339.709376,25.6796875 L336.158595,18.4375 C340.682055,16.0703007 345.69763,14.8867188 351.20547,14.8867188 C356.478933,14.8867188 360.521862,16.0351448 363.334376,18.3320312 C366.14689,20.6289177 367.553126,24.1210703 367.553126,28.8085938 L367.553126,55 L360.064845,55 Z M356.900782,36.7890625 L352.752345,36.9296875 C349.635142,37.023438 347.314852,37.5859323 345.791407,38.6171875 C344.267962,39.6484427 343.506251,41.2187395 343.506251,43.328125 C343.506251,46.3515776 345.240609,47.8632812 348.709376,47.8632812 C351.193763,47.8632812 353.180072,47.1484446 354.66836,45.71875 C356.156649,44.2890554 356.900782,42.3906368 356.900782,40.0234375 L356.900782,36.7890625 Z M398.129689,14.9570312 C399.582821,14.9570312 400.78984,15.0624989 401.750782,15.2734375 L400.942189,25.328125 C400.074997,25.0937488 399.02032,24.9765625 397.778126,24.9765625 C394.356234,24.9765625 391.690245,25.85546 389.780079,27.6132812 C387.869913,29.3711025 386.914845,31.8320154 386.914845,34.9960938 L386.914845,55 L376.192189,55 L376.192189,15.6953125 L384.313282,15.6953125 L385.895314,22.3046875 L386.422657,22.3046875 C387.641413,20.1015515 389.287881,18.3261786 391.36211,16.9785156 C393.436339,15.6308526 395.692176,14.9570312 398.129689,14.9570312 L398.129689,14.9570312 Z M417.491407,55.703125 C412.874197,55.703125 409.24728,53.9101742 406.610548,50.3242188 C403.973816,46.7382633 402.65547,41.769563 402.65547,35.4179688 C402.65547,28.972624 403.997253,23.9511899 406.680861,20.3535156 C409.364468,16.7558414 413.061696,14.9570312 417.772657,14.9570312 C422.717995,14.9570312 426.491394,16.878887 429.09297,20.7226562 L429.444532,20.7226562 C428.905467,17.7929541 428.635939,15.179699 428.635939,12.8828125 L428.635939,0.296875 L439.393751,0.296875 L439.393751,55 L431.167189,55 L429.09297,49.9023438 L428.635939,49.9023438 C426.198426,53.7695506 422.48362,55.703125 417.491407,55.703125 L417.491407,55.703125 Z M421.253126,47.1601562 C423.995327,47.1601562 426.005073,46.3632892 427.282423,44.7695312 C428.559773,43.1757733 429.257032,40.4687691 429.37422,36.6484375 L429.37422,35.4882812 C429.37422,31.2695102 428.723836,28.2461029 427.423048,26.4179688 C426.12226,24.5898346 424.007047,23.6757812 421.077345,23.6757812 C418.686708,23.6757812 416.829305,24.689443 415.505079,26.7167969 C414.180854,28.7441508 413.518751,31.6913869 413.518751,35.5585938 C413.518751,39.4258006 414.186713,42.3261622 415.522657,44.2597656 C416.858602,46.193369 418.768739,47.1601562 421.253126,47.1601562 L421.253126,47.1601562 Z M475.63047,43.328125 C475.63047,47.3593952 474.230093,50.429677 471.429298,52.5390625 C468.628503,54.648448 464.439092,55.703125 458.860939,55.703125 C456.001549,55.703125 453.564074,55.5097676 451.548439,55.1230469 C449.532804,54.7363262 447.646104,54.1679725 445.888283,53.4179688 L445.888283,44.5585938 C447.88048,45.4960984 450.124598,46.2812468 452.620704,46.9140625 C455.116811,47.5468782 457.314054,47.8632812 459.212501,47.8632812 C463.103146,47.8632812 465.048439,46.7382925 465.048439,44.4882812 C465.048439,43.644527 464.790629,42.958987 464.275001,42.4316406 C463.759374,41.9042942 462.868758,41.306644 461.603126,40.6386719 C460.337495,39.9706998 458.650012,39.1914107 456.540626,38.3007812 C453.517174,37.0351499 451.296493,35.8632866 449.878517,34.7851562 C448.460541,33.7070259 447.429301,32.4707101 446.784767,31.0761719 C446.140232,29.6816337 445.81797,27.9648539 445.81797,25.9257812 C445.81797,22.4335763 447.171472,19.7324314 449.878517,17.8222656 C452.585562,15.9120998 456.423414,14.9570312 461.392189,14.9570312 C466.126587,14.9570312 470.73201,15.9882709 475.208595,18.0507812 L471.97422,25.7851562 C470.00546,24.941402 468.165635,24.2500027 466.454689,23.7109375 C464.743743,23.1718723 462.997666,22.9023438 461.216408,22.9023438 C458.052329,22.9023438 456.470314,23.7578039 456.470314,25.46875 C456.470314,26.4296923 456.980074,27.2617152 457.999611,27.9648438 C459.019147,28.6679723 461.251547,29.7109306 464.696876,31.09375 C467.767204,32.3359437 470.017182,33.4960884 471.446876,34.5742188 C472.876571,35.6523491 473.931248,36.8945242 474.610939,38.3007812 C475.29063,39.7070383 475.63047,41.3828028 475.63047,43.328125 L475.63047,43.328125 Z" id="BrandCards" fill="#9B9B9B" sketch:type="MSShapeGroup"></path>
        </g>
    </g>
</svg>