<?xml version="1.0" encoding="UTF-8" standalone="no"?>
<svg width="60px" height="61px" viewBox="0 0 60 61" version="1.1" xmlns="http://www.w3.org/2000/svg" xmlns:xlink="http://www.w3.org/1999/xlink" xmlns:sketch="http://www.bohemiancoding.com/sketch/ns">
    <!-- Generator: Sketch 3.1.1 (8761) - http://www.bohemiancoding.com/sketch -->
    <title>cursor-select-area</title>
    <desc>Created with Sketch.</desc>
    <defs></defs>
    <g id="Page-1" stroke="none" stroke-width="1" fill="none" fill-rule="evenodd" sketch:type="MSPage">
        <g id="Book__Dashboard-2" sketch:type="MSArtboardGroup" transform="translate(-703.000000, -395.000000)" fill="#231F20">
            <g id="cursor-select-area" sketch:type="MSLayerGroup" transform="translate(703.000000, 396.000000)">
                <g id="Group" sketch:type="MSShapeGroup">
                    <path d="M59.707,58.315 L46.882,45.49 L54.349,42.289 C54.719,42.131 54.958,41.766 54.956,41.363 C54.953,40.961 54.709,40.599 54.337,40.446 L32.902,31.62 C32.53,31.468 32.1,31.553 31.814,31.838 C31.529,32.123 31.443,32.552 31.596,32.926 L40.422,54.361 C40.575,54.733 40.937,54.977 41.34,54.98 L41.347,54.98 C41.746,54.98 42.109,54.742 42.266,54.374 L45.468,46.906 L58.293,59.731 C58.488,59.926 58.744,60.024 59,60.024 C59.256,60.024 59.512,59.926 59.707,59.731 C60.098,59.338 60.098,58.706 59.707,58.315 L59.707,58.315 Z M41.366,51.396 L34.36,34.382 L51.375,41.388 L44.756,44.225 C44.755,44.225 44.754,44.226 44.753,44.226 L44.737,44.233 C44.62,44.283 44.514,44.355 44.425,44.444 C44.425,44.444 44.424,44.445 44.423,44.445 L44.423,44.445 C44.334,44.534 44.261,44.64 44.211,44.758 L44.204,44.775 L44.204,44.776 L41.366,51.396 L41.366,51.396 Z" id="Shape"></path>
                    <path d="M42,8.978 C42,8.426 41.553,7.978 41,7.978 C40.447,7.978 40,8.426 40,8.978 L40,13.978 C40,14.53 40.447,14.978 41,14.978 C41.553,14.978 42,14.53 42,13.978 L42,8.978 L42,8.978 Z" id="Shape"></path>
                    <path d="M41,18.978 C40.447,18.978 40,19.426 40,19.978 L40,24.978 C40,25.53 40.447,25.978 41,25.978 C41.553,25.978 42,25.53 42,24.978 L42,19.978 C42,19.426 41.553,18.978 41,18.978 L41,18.978 Z" id="Shape"></path>
                    <path d="M1,13.978 C1.553,13.978 2,13.53 2,12.978 L2,8.978 C2,8.426 1.553,7.978 1,7.978 C0.447,7.978 0,8.426 0,8.978 L0,12.978 C0,13.53 0.447,13.978 1,13.978 L1,13.978 Z" id="Shape"></path>
                    <path d="M1,23.978 C1.553,23.978 2,23.53 2,22.978 L2,18.978 C2,18.426 1.553,17.978 1,17.978 C0.447,17.978 0,18.426 0,18.978 L0,22.978 C0,23.53 0.447,23.978 1,23.978 L1,23.978 Z" id="Shape"></path>
                    <path d="M1,33.978 C1.553,33.978 2,33.53 2,32.978 L2,28.978 C2,28.426 1.553,27.978 1,27.978 C0.447,27.978 0,28.426 0,28.978 L0,32.978 C0,33.53 0.447,33.978 1,33.978 L1,33.978 Z" id="Shape"></path>
                    <path d="M3,-0.022 L1,-0.022 C0.447,-0.022 0,0.426 0,0.978 L0,2.978 C0,3.53 0.447,3.978 1,3.978 C1.553,3.978 2,3.53 2,2.978 L2,1.978 L3,1.978 C3.553,1.978 4,1.53 4,0.978 C4,0.426 3.553,-0.022 3,-0.022 L3,-0.022 Z" id="Shape"></path>
                    <path d="M13,-0.022 L9,-0.022 C8.447,-0.022 8,0.426 8,0.978 C8,1.53 8.447,1.978 9,1.978 L13,1.978 C13.553,1.978 14,1.53 14,0.978 C14,0.426 13.553,-0.022 13,-0.022 L13,-0.022 Z" id="Shape"></path>
                    <path d="M23,-0.022 L19,-0.022 C18.447,-0.022 18,0.426 18,0.978 C18,1.53 18.447,1.978 19,1.978 L23,1.978 C23.553,1.978 24,1.53 24,0.978 C24,0.426 23.553,-0.022 23,-0.022 L23,-0.022 Z" id="Shape"></path>
                    <path d="M3,39.978 L2,39.978 L2,38.978 C2,38.426 1.553,37.978 1,37.978 C0.447,37.978 0,38.426 0,38.978 L0,40.978 C0,41.53 0.447,41.978 1,41.978 L3,41.978 C3.553,41.978 4,41.53 4,40.978 C4,40.426 3.553,39.978 3,39.978 L3,39.978 Z" id="Shape"></path>
                    <path d="M13,39.978 L9,39.978 C8.447,39.978 8,40.426 8,40.978 C8,41.53 8.447,41.978 9,41.978 L13,41.978 C13.553,41.978 14,41.53 14,40.978 C14,40.426 13.553,39.978 13,39.978 L13,39.978 Z" id="Shape"></path>
                    <path d="M23,39.978 L19,39.978 C18.447,39.978 18,40.426 18,40.978 C18,41.53 18.447,41.978 19,41.978 L23,41.978 C23.553,41.978 24,41.53 24,40.978 C24,40.426 23.553,39.978 23,39.978 L23,39.978 Z" id="Shape"></path>
                    <path d="M34,0.978 C34,0.426 33.553,-0.022 33,-0.022 L29,-0.022 C28.447,-0.022 28,0.426 28,0.978 C28,1.53 28.447,1.978 29,1.978 L33,1.978 C33.553,1.978 34,1.53 34,0.978 L34,0.978 Z" id="Shape"></path>
                    <path d="M42,0.978 C42,0.426 41.553,-0.022 41,-0.022 L39,-0.022 C38.447,-0.022 38,0.426 38,0.978 C38,1.53 38.447,1.978 39,1.978 L40,1.978 L40,2.978 C40,3.53 40.447,3.978 41,3.978 C41.553,3.978 42,3.53 42,2.978 L42,0.978 L42,0.978 Z" id="Shape"></path>
                </g>
            </g>
        </g>
    </g>
</svg>