<?xml version="1.0" encoding="UTF-8" standalone="no"?>
<svg width="487px" height="76px" viewBox="0 0 487 76" version="1.1" xmlns="http://www.w3.org/2000/svg" xmlns:xlink="http://www.w3.org/1999/xlink" xmlns:sketch="http://www.bohemiancoding.com/sketch/ns">
    <!-- Generator: Sketch 3.1.1 (8761) - http://www.bohemiancoding.com/sketch -->
    <title>logo</title>
    <desc>Created with Sketch.</desc>
    <defs></defs>
    <g id="Page-1" stroke="none" stroke-width="1" fill="none" fill-rule="evenodd" sketch:type="MSPage">
        <g id="logo" sketch:type="MSLayerGroup" transform="translate(1.000000, 1.000000)">
            <g id="Page-1" sketch:type="MSShapeGroup">
                <g id="logo">
                    <g id="Page-1">
                        <g id="logo">
                            <g id="Page-1">
                                <g id="logo">
                                    <g id="Page-1">
                                        <g id="Portrait---6-Plus">
                                            <g id="BRANDCARDS-+-Rectangle-1-+-Rectangle-2-+-Line-+-Rectangle-1-+-Rectangle-2-+-Line-2">
                                                <g id="Rectangle-1-+-Rectangle-2-+-Line-2" transform="translate(-0.292041, 0.097874)">
                                                    <g id="Rectangle-1-+-Rectangle-2-+-Line" transform="translate(37.000000, 37.000000) rotate(-4.000000) translate(-37.000000, -37.000000) translate(2.000000, 2.000000)">
                                                        <rect id="Rectangle-1" stroke="#D7D7D7" fill="#FFFFFF" x="0.17875975" y="41.7259654" width="69.8201797" height="28.3488965"></rect>
                                                        <rect id="Rectangle-2" fill="#90D2AC" x="0.17875975" y="-0.045139625" width="69.8201797" height="43.3766834"></rect>
                                                        <path d="M51.6260663,55 L18.5647403,55" id="Line" stroke="#DDDDDD" stroke-width="3"></path>
                                                    </g>
                                                </g>
                                            </g>
                                        </g>
                                    </g>
                                </g>
                            </g>
                        </g>
                    </g>
                    <path d="M98.46875,8.6015625 L114.464844,8.6015625 C121.753943,8.6015625 127.044905,9.6386615 130.337891,11.7128906 C133.630876,13.7871198 135.277344,17.0859149 135.277344,21.609375 C135.277344,24.6797029 134.556648,27.1992089 133.115234,29.1679688 C131.673821,31.1367286 129.757824,32.3203105 127.367188,32.71875 L127.367188,33.0703125 C130.625016,33.7968786 132.974602,35.15624 134.416016,37.1484375 C135.857429,39.140635 136.578125,41.789046 136.578125,45.09375 C136.578125,49.7812734 134.884783,53.4374869 131.498047,56.0625 C128.111311,58.6875131 123.511748,60 117.699219,60 L98.46875,60 L98.46875,8.6015625 L98.46875,8.6015625 Z M109.367188,28.9570312 L115.695312,28.9570312 C118.648452,28.9570312 120.787103,28.5000046 122.111328,27.5859375 C123.435553,26.6718704 124.097656,25.1601668 124.097656,23.0507812 C124.097656,21.0820214 123.37696,19.6699262 121.935547,18.8144531 C120.494133,17.9589801 118.214859,17.53125 115.097656,17.53125 L109.367188,17.53125 L109.367188,28.9570312 L109.367188,28.9570312 Z M109.367188,37.6054688 L109.367188,51 L116.46875,51 C119.468765,51 121.683587,50.425787 123.113281,49.2773438 C124.542976,48.1289005 125.257812,46.3711056 125.257812,44.0039062 C125.257812,39.7382599 122.210968,37.6054688 116.117188,37.6054688 L109.367188,37.6054688 L109.367188,37.6054688 Z M165.5375,19.9570312 C166.990632,19.9570312 168.197652,20.0624989 169.158594,20.2734375 L168.35,30.328125 C167.482808,30.0937488 166.428131,29.9765625 165.185938,29.9765625 C161.764046,29.9765625 159.098057,30.85546 157.187891,32.6132812 C155.277725,34.3711025 154.322656,36.8320154 154.322656,39.9960938 L154.322656,60 L143.6,60 L143.6,20.6953125 L151.721094,20.6953125 L153.303125,27.3046875 L153.830469,27.3046875 C155.049225,25.1015515 156.695693,23.3261786 158.769922,21.9785156 C160.844151,20.6308526 163.099988,19.9570312 165.5375,19.9570312 L165.5375,19.9570312 L165.5375,19.9570312 Z M197.414844,60 L195.340625,54.65625 L195.059375,54.65625 C193.254679,56.9296989 191.397275,58.505855 189.48711,59.3847656 C187.576944,60.2636763 185.086734,60.703125 182.016407,60.703125 C178.24295,60.703125 175.272277,59.6250108 173.104297,57.46875 C170.936318,55.3124892 169.852344,52.2422074 169.852344,48.2578125 C169.852344,44.0859166 171.311314,41.0097755 174.229297,39.0292969 C177.147281,37.0488182 181.547627,35.9531261 187.430469,35.7421875 L194.250782,35.53125 L194.250782,33.8085938 C194.250782,29.8241988 192.211739,27.8320312 188.133594,27.8320312 C184.992953,27.8320312 181.301584,28.7812405 177.059375,30.6796875 L173.508594,23.4375 C178.032054,21.0703007 183.047629,19.8867188 188.555469,19.8867188 C193.828933,19.8867188 197.871861,21.0351448 200.684375,23.3320312 C203.496889,25.6289177 204.903125,29.1210703 204.903125,33.8085938 L204.903125,60 L197.414844,60 L197.414844,60 Z M194.250782,41.7890625 L190.102344,41.9296875 C186.985141,42.023438 184.664852,42.5859323 183.141407,43.6171875 C181.617961,44.6484427 180.85625,46.2187395 180.85625,48.328125 C180.85625,51.3515776 182.590608,52.8632812 186.059375,52.8632812 C188.543763,52.8632812 190.530071,52.1484446 192.01836,50.71875 C193.506648,49.2890554 194.250782,47.3906368 194.250782,45.0234375 L194.250782,41.7890625 L194.250782,41.7890625 Z M249.823438,60 L239.100782,60 L239.100782,37.0429688 C239.100782,34.2070171 238.59688,32.0800852 237.589063,30.6621094 C236.581245,29.2441335 234.975793,28.5351562 232.772657,28.5351562 C229.772642,28.5351562 227.604695,29.5370994 226.26875,31.5410156 C224.932806,33.5449319 224.264844,36.8671643 224.264844,41.5078125 L224.264844,60 L213.542188,60 L213.542188,20.6953125 L221.733594,20.6953125 L223.175,25.7226562 L223.772657,25.7226562 C224.967975,23.8242093 226.614443,22.3886767 228.71211,21.4160156 C230.809777,20.4433545 233.194518,19.9570312 235.866407,19.9570312 C240.436742,19.9570312 243.905457,21.193347 246.272657,23.6660156 C248.639856,26.1386842 249.823438,29.7070079 249.823438,34.3710938 L249.823438,60 L249.823438,60 Z M270.907813,60.703125 C266.290602,60.703125 262.663686,58.9101742 260.026954,55.3242188 C257.390222,51.7382633 256.071876,46.769563 256.071876,40.4179688 C256.071876,33.972624 257.413659,28.9511899 260.097266,25.3535156 C262.780873,21.7558414 266.478102,19.9570312 271.189063,19.9570312 C276.1344,19.9570312 279.9078,21.878887 282.509376,25.7226562 L282.860938,25.7226562 C282.321873,22.7929541 282.052344,20.179699 282.052344,17.8828125 L282.052344,5.296875 L292.810157,5.296875 L292.810157,60 L284.583594,60 L282.509376,54.9023438 L282.052344,54.9023438 C279.614832,58.7695506 275.900026,60.703125 270.907813,60.703125 L270.907813,60.703125 L270.907813,60.703125 Z M274.669532,52.1601562 C277.411733,52.1601562 279.421479,51.3632892 280.698829,49.7695312 C281.976179,48.1757733 282.673437,45.4687691 282.790626,41.6484375 L282.790626,40.4882812 C282.790626,36.2695102 282.140241,33.2461029 280.839454,31.4179688 C279.538666,29.5898346 277.423453,28.6757812 274.493751,28.6757812 C272.103114,28.6757812 270.24571,29.689443 268.921485,31.7167969 C267.59726,33.7441508 266.935157,36.6913869 266.935157,40.5585938 C266.935157,44.4258006 267.603119,47.3261622 268.939063,49.2597656 C270.275007,51.193369 272.185144,52.1601562 274.669532,52.1601562 L274.669532,52.1601562 L274.669532,52.1601562 Z M324.300782,16.9335938 C320.199199,16.9335938 317.023449,18.474594 314.773438,21.5566406 C312.523427,24.6386873 311.398438,28.9335662 311.398438,34.4414062 C311.398438,45.9024011 315.699176,51.6328125 324.300782,51.6328125 C327.910175,51.6328125 332.281225,50.7304778 337.414063,48.9257812 L337.414063,58.0664062 C333.195292,59.8242275 328.484402,60.703125 323.281251,60.703125 C315.804651,60.703125 310.085958,58.4355696 306.125001,53.9003906 C302.164043,49.3652117 300.183594,42.8555112 300.183594,34.3710938 C300.183594,29.027317 301.156241,24.3457232 303.101563,20.3261719 C305.046885,16.3066205 307.841779,13.2246201 311.486329,11.0800781 C315.130878,8.93553615 319.40232,7.86328125 324.300782,7.86328125 C329.292994,7.86328125 334.308569,9.07030043 339.347657,11.484375 L335.832032,20.34375 C333.910147,19.4296829 331.976573,18.6328159 330.031251,17.953125 C328.085928,17.2734341 326.175791,16.9335938 324.300782,16.9335938 L324.300782,16.9335938 L324.300782,16.9335938 Z M370.064845,60 L367.990626,54.65625 L367.709376,54.65625 C365.904679,56.9296989 364.047276,58.505855 362.13711,59.3847656 C360.226944,60.2636763 357.736735,60.703125 354.666407,60.703125 C350.892951,60.703125 347.922277,59.6250108 345.754298,57.46875 C343.586318,55.3124892 342.502345,52.2422074 342.502345,48.2578125 C342.502345,44.0859166 343.961314,41.0097755 346.879298,39.0292969 C349.797281,37.0488182 354.197628,35.9531261 360.08047,35.7421875 L366.900782,35.53125 L366.900782,33.8085938 C366.900782,29.8241988 364.86174,27.8320312 360.783595,27.8320312 C357.642954,27.8320312 353.951585,28.7812405 349.709376,30.6796875 L346.158595,23.4375 C350.682055,21.0703007 355.69763,19.8867188 361.20547,19.8867188 C366.478933,19.8867188 370.521862,21.0351448 373.334376,23.3320312 C376.14689,25.6289177 377.553126,29.1210703 377.553126,33.8085938 L377.553126,60 L370.064845,60 L370.064845,60 Z M366.900782,41.7890625 L362.752345,41.9296875 C359.635142,42.023438 357.314852,42.5859323 355.791407,43.6171875 C354.267962,44.6484427 353.506251,46.2187395 353.506251,48.328125 C353.506251,51.3515776 355.240609,52.8632812 358.709376,52.8632812 C361.193763,52.8632812 363.180072,52.1484446 364.66836,50.71875 C366.156649,49.2890554 366.900782,47.3906368 366.900782,45.0234375 L366.900782,41.7890625 L366.900782,41.7890625 Z M408.129689,19.9570312 C409.582821,19.9570312 410.78984,20.0624989 411.750782,20.2734375 L410.942189,30.328125 C410.074997,30.0937488 409.02032,29.9765625 407.778126,29.9765625 C404.356234,29.9765625 401.690245,30.85546 399.780079,32.6132812 C397.869913,34.3711025 396.914845,36.8320154 396.914845,39.9960938 L396.914845,60 L386.192189,60 L386.192189,20.6953125 L394.313282,20.6953125 L395.895314,27.3046875 L396.422657,27.3046875 C397.641413,25.1015515 399.287881,23.3261786 401.36211,21.9785156 C403.436339,20.6308526 405.692176,19.9570312 408.129689,19.9570312 L408.129689,19.9570312 L408.129689,19.9570312 Z M427.491407,60.703125 C422.874197,60.703125 419.24728,58.9101742 416.610548,55.3242188 C413.973816,51.7382633 412.65547,46.769563 412.65547,40.4179688 C412.65547,33.972624 413.997253,28.9511899 416.680861,25.3535156 C419.364468,21.7558414 423.061696,19.9570312 427.772657,19.9570312 C432.717995,19.9570312 436.491394,21.878887 439.09297,25.7226562 L439.444532,25.7226562 C438.905467,22.7929541 438.635939,20.179699 438.635939,17.8828125 L438.635939,5.296875 L449.393751,5.296875 L449.393751,60 L441.167189,60 L439.09297,54.9023438 L438.635939,54.9023438 C436.198426,58.7695506 432.48362,60.703125 427.491407,60.703125 L427.491407,60.703125 L427.491407,60.703125 Z M431.253126,52.1601562 C433.995327,52.1601562 436.005073,51.3632892 437.282423,49.7695312 C438.559773,48.1757733 439.257032,45.4687691 439.37422,41.6484375 L439.37422,40.4882812 C439.37422,36.2695102 438.723836,33.2461029 437.423048,31.4179688 C436.12226,29.5898346 434.007047,28.6757812 431.077345,28.6757812 C428.686708,28.6757812 426.829305,29.689443 425.505079,31.7167969 C424.180854,33.7441508 423.518751,36.6913869 423.518751,40.5585938 C423.518751,44.4258006 424.186713,47.3261622 425.522657,49.2597656 C426.858602,51.193369 428.768739,52.1601562 431.253126,52.1601562 L431.253126,52.1601562 L431.253126,52.1601562 Z M485.63047,48.328125 C485.63047,52.3593952 484.230093,55.429677 481.429298,57.5390625 C478.628503,59.648448 474.439092,60.703125 468.860939,60.703125 C466.001549,60.703125 463.564074,60.5097676 461.548439,60.1230469 C459.532804,59.7363262 457.646104,59.1679725 455.888283,58.4179688 L455.888283,49.5585938 C457.88048,50.4960984 460.124598,51.2812468 462.620704,51.9140625 C465.116811,52.5468782 467.314054,52.8632812 469.212501,52.8632812 C473.103146,52.8632812 475.048439,51.7382925 475.048439,49.4882812 C475.048439,48.644527 474.790629,47.958987 474.275001,47.4316406 C473.759374,46.9042942 472.868758,46.306644 471.603126,45.6386719 C470.337495,44.9706998 468.650012,44.1914107 466.540626,43.3007812 C463.517174,42.0351499 461.296493,40.8632866 459.878517,39.7851562 C458.460541,38.7070259 457.429301,37.4707101 456.784767,36.0761719 C456.140232,34.6816337 455.81797,32.9648539 455.81797,30.9257812 C455.81797,27.4335763 457.171472,24.7324314 459.878517,22.8222656 C462.585562,20.9120998 466.423414,19.9570312 471.392189,19.9570312 C476.126587,19.9570312 480.73201,20.9882709 485.208595,23.0507812 L481.97422,30.7851562 C480.00546,29.941402 478.165635,29.2500027 476.454689,28.7109375 C474.743743,28.1718723 472.997666,27.9023438 471.216408,27.9023438 C468.052329,27.9023438 466.470314,28.7578039 466.470314,30.46875 C466.470314,31.4296923 466.980074,32.2617152 467.999611,32.9648438 C469.019147,33.6679723 471.251547,34.7109306 474.696876,36.09375 C477.767204,37.3359437 480.017182,38.4960884 481.446876,39.5742188 C482.876571,40.6523491 483.931248,41.8945242 484.610939,43.3007812 C485.29063,44.7070383 485.63047,46.3828028 485.63047,48.328125 L485.63047,48.328125 L485.63047,48.328125 Z" id="BrandCards" fill="#9B9B9B"></path>
                </g>
            </g>
        </g>
    </g>
</svg>