<?xml version="1.0" encoding="UTF-8" standalone="no"?>
<svg width="61px" height="58px" viewBox="0 0 61 58" version="1.1" xmlns="http://www.w3.org/2000/svg" xmlns:xlink="http://www.w3.org/1999/xlink" xmlns:sketch="http://www.bohemiancoding.com/sketch/ns">
    <!-- Generator: Sketch 3.1.1 (8761) - http://www.bohemiancoding.com/sketch -->
    <title>palette</title>
    <desc>Created with Sketch.</desc>
    <defs></defs>
    <g id="Page-1" stroke="none" stroke-width="1" fill="none" fill-rule="evenodd" sketch:type="MSPage">
        <g id="Book__Dashboard-2" sketch:type="MSArtboardGroup" transform="translate(-693.000000, -551.000000)" fill="#231F20">
            <g id="palette" sketch:type="MSLayerGroup" transform="translate(694.000000, 552.000000)">
                <g id="Group" sketch:type="MSShapeGroup">
                    <path d="M28.519,-0.036 C20.83,-0.036 13.647,2.912 8.292,8.266 C-3.203,19.762 -2.745,39.643 9.292,51.681 C10.434,52.822 11.928,53.45 13.5,53.45 C15.072,53.45 16.565,52.822 17.707,51.681 C20.065,49.322 20.065,45.626 17.706,43.267 C16.201,41.762 16.064,40.324 16.707,39.681 C17.064,39.323 17.242,39.323 17.309,39.323 C17.543,39.323 18.111,39.5 19.292,40.681 L30.292,51.681 C33.101,54.49 36.903,56.036 40.999,56.036 C45.095,56.036 48.897,54.489 51.706,51.681 C63.124,40.264 62.675,21.237 50.706,9.267 C44.794,3.355 36.708,-0.036 28.519,-0.036 L28.519,-0.036 Z M50.293,50.267 C47.862,52.698 44.562,54.036 41,54.036 C37.438,54.036 34.138,52.697 31.707,50.267 L20.707,39.267 C19.363,37.923 18.315,37.324 17.31,37.324 C16.587,37.324 15.928,37.633 15.293,38.267 C13.948,39.613 13.86,42.248 16.294,44.681 C17.885,46.273 17.885,48.675 16.294,50.267 C14.768,51.793 12.235,51.793 10.708,50.267 C-0.562,38.996 -1.02,20.411 9.708,9.681 C14.685,4.705 21.366,1.965 28.52,1.965 C36.182,1.965 43.753,5.142 49.294,10.681 C60.481,21.871 60.93,39.629 50.293,50.267 L50.293,50.267 Z" id="Shape"></path>
                    <path d="M40.699,22.491 C42.035,22.491 43.291,21.971 44.235,21.027 C45.179,20.083 45.699,18.828 45.699,17.492 C45.699,16.156 45.179,14.9 44.235,13.957 C43.291,13.012 42.035,12.491 40.699,12.491 C39.363,12.491 38.107,13.012 37.164,13.956 C36.219,14.9 35.698,16.156 35.698,17.493 C35.698,18.829 36.218,20.084 37.163,21.028 C38.108,21.971 39.363,22.491 40.699,22.491 L40.699,22.491 Z M38.579,15.37 C39.145,14.804 39.898,14.491 40.7,14.491 C41.502,14.491 42.255,14.803 42.822,15.37 C43.388,15.936 43.7,16.69 43.7,17.492 C43.7,18.294 43.388,19.047 42.822,19.613 C41.689,20.746 39.713,20.746 38.579,19.613 C38.013,19.047 37.7,18.294 37.7,17.492 C37.699,16.69 38.011,15.937 38.579,15.37 L38.579,15.37 Z" id="Shape"></path>
                    <path d="M44.825,27.146 C44.069,27.901 43.653,28.906 43.653,29.974 C43.653,31.042 44.069,32.047 44.825,32.803 C45.581,33.558 46.585,33.974 47.653,33.974 C48.721,33.974 49.725,33.558 50.481,32.803 C51.237,32.048 51.653,31.043 51.653,29.975 C51.653,28.907 51.237,27.903 50.481,27.147 C48.97,25.634 46.335,25.634 44.825,27.146 L44.825,27.146 Z M49.066,28.56 C49.444,28.938 49.652,29.44 49.652,29.974 C49.652,30.508 49.444,31.01 49.066,31.388 C48.31,32.142 46.993,32.142 46.238,31.388 C45.86,31.01 45.652,30.508 45.652,29.974 C45.652,29.44 45.86,28.938 46.238,28.56 C46.616,28.182 47.118,27.974 47.652,27.974 C48.187,27.974 48.688,28.182 49.066,28.56 L49.066,28.56 Z" id="Shape"></path>
                    <path d="M40.699,36.455 C39.095,36.455 37.589,37.079 36.457,38.212 C35.324,39.345 34.7,40.852 34.7,42.456 C34.7,44.059 35.324,45.566 36.457,46.698 C37.589,47.831 39.096,48.455 40.7,48.455 C42.303,48.455 43.81,47.832 44.943,46.699 C46.076,45.567 46.7,44.06 46.7,42.456 C46.7,40.852 46.076,39.346 44.943,38.212 C43.809,37.079 42.302,36.455 40.699,36.455 L40.699,36.455 Z M43.528,45.284 C42.017,46.795 39.381,46.795 37.87,45.284 C37.115,44.53 36.699,43.525 36.699,42.456 C36.699,41.387 37.115,40.382 37.871,39.626 C38.625,38.871 39.63,38.455 40.699,38.455 C41.768,38.455 42.773,38.871 43.528,39.626 C44.283,40.381 44.699,41.386 44.699,42.456 C44.699,43.524 44.283,44.529 43.528,45.284 L43.528,45.284 Z" id="Shape"></path>
                    <path d="M25.001,9.815 C23.666,9.815 22.41,10.335 21.466,11.28 C20.521,12.224 20,13.479 20,14.815 C20,16.151 20.521,17.407 21.465,18.351 C22.409,19.295 23.665,19.815 25,19.815 C26.336,19.815 27.591,19.295 28.535,18.352 C29.48,17.407 30,16.151 30,14.815 C30,13.48 29.479,12.224 28.536,11.281 C27.591,10.336 26.336,9.815 25.001,9.815 L25.001,9.815 Z M27.121,16.937 C25.99,18.068 24.013,18.069 22.879,16.937 C22.312,16.37 22,15.617 22,14.815 C22,14.014 22.312,13.261 22.879,12.695 C23.446,12.128 24.199,11.816 25.001,11.816 C25.802,11.816 26.554,12.128 27.122,12.696 C27.688,13.261 28,14.014 28,14.815 C28,15.617 27.688,16.37 27.121,16.937 L27.121,16.937 Z" id="Shape"></path>
                </g>
            </g>
        </g>
    </g>
</svg>