<?xml version="1.0" encoding="UTF-8" standalone="no"?>
<svg width="60px" height="60px" viewBox="0 0 60 60" version="1.1" xmlns="http://www.w3.org/2000/svg" xmlns:xlink="http://www.w3.org/1999/xlink" xmlns:sketch="http://www.bohemiancoding.com/sketch/ns">
    <!-- Generator: Sketch 3.1.1 (8761) - http://www.bohemiancoding.com/sketch -->
    <title>text-wrapping-2</title>
    <desc>Created with Sketch.</desc>
    <defs></defs>
    <g id="Page-1" stroke="none" stroke-width="1" fill="none" fill-rule="evenodd" sketch:type="MSPage">
        <g id="Book__Dashboard-2" sketch:type="MSArtboardGroup" transform="translate(-917.000000, -553.000000)" fill="#010101">
            <g id="text-wrapping-2" sketch:type="MSLayerGroup" transform="translate(917.000000, 553.000000)">
                <g id="Group" sketch:type="MSShapeGroup">
                    <path d="M59,0 L1,0 C0.447,0 0,0.448 0,1 L0,59 C0,59.552 0.447,60 1,60 L59,60 C59.553,60 60,59.552 60,59 L60,1 C60,0.448 59.553,0 59,0 L59,0 Z M58,58 L2,58 L2,2 L58,2 L58,58 L58,58 Z" id="Shape"></path>
                    <path d="M17,14 L51,14 C51.553,14 52,13.552 52,13 C52,12.448 51.553,12 51,12 L17,12 C16.447,12 16,12.448 16,13 C16,13.552 16.447,14 17,14 L17,14 Z" id="Shape"></path>
                    <path d="M9,22 L51,22 C51.553,22 52,21.552 52,21 C52,20.448 51.553,20 51,20 L9,20 C8.447,20 8,20.448 8,21 C8,21.552 8.447,22 9,22 L9,22 Z" id="Shape"></path>
                    <path d="M9,30 L51,30 C51.553,30 52,29.552 52,29 C52,28.448 51.553,28 51,28 L9,28 C8.447,28 8,28.448 8,29 C8,29.552 8.447,30 9,30 L9,30 Z" id="Shape"></path>
                    <path d="M9,38 L51,38 C51.553,38 52,37.552 52,37 C52,36.448 51.553,36 51,36 L9,36 C8.447,36 8,36.448 8,37 C8,37.552 8.447,38 9,38 L9,38 Z" id="Shape"></path>
                    <path d="M9,46 L43,46 C43.553,46 44,45.552 44,45 C44,44.448 43.553,44 43,44 L9,44 C8.447,44 8,44.448 8,45 C8,45.552 8.447,46 9,46 L9,46 Z" id="Shape"></path>
                </g>
            </g>
        </g>
    </g>
</svg>