<?xml version="1.0" encoding="UTF-8" standalone="no"?>
<svg width="60px" height="46px" viewBox="0 0 60 46" version="1.1" xmlns="http://www.w3.org/2000/svg" xmlns:xlink="http://www.w3.org/1999/xlink" xmlns:sketch="http://www.bohemiancoding.com/sketch/ns">
    <!-- Generator: Sketch 3.1.1 (8761) - http://www.bohemiancoding.com/sketch -->
    <title>movie-play-1</title>
    <desc>Created with Sketch.</desc>
    <defs></defs>
    <g id="Page-1" stroke="none" stroke-width="1" fill="none" fill-rule="evenodd" sketch:type="MSPage">
        <g id="Book__Dashboard-2" sketch:type="MSArtboardGroup" transform="translate(-1140.000000, -551.000000)" fill="#231F20">
            <g id="movie-play-1" sketch:type="MSLayerGroup" transform="translate(1140.000000, 551.000000)">
                <g id="Group" sketch:type="MSShapeGroup">
                    <path d="M59,0 L1,0 C0.447,0 0,0.448 0,1 L0,9 L0,37 L0,45 C0,45.552 0.447,46 1,46 L59,46 C59.553,46 60,45.552 60,45 L60,37 L60,9 L60,1 C60,0.448 59.553,0 59,0 L59,0 Z M40,38 L40,44 L20,44 L20,38 L40,38 L40,38 Z M2,36 L2,10 L58,10 L58,36 L2,36 L2,36 Z M58,2 L58,8 L42,8 L42,2 L58,2 L58,2 Z M40,8 L20,8 L20,2 L40,2 L40,8 L40,8 Z M2,2 L18,2 L18,8 L2,8 L2,2 L2,2 Z M2,38 L18,38 L18,44 L2,44 L2,38 L2,38 Z M58,44 L42,44 L42,38 L58,38 L58,44 L58,44 Z" id="Shape"></path>
                    <path d="M37.963,22.517 L23.398,16.213 C23.087,16.08 22.733,16.111 22.452,16.295 C22.17,16.479 22,16.793 22,17.13 L22,29.739 C22,30.076 22.17,30.39 22.451,30.575 C22.616,30.684 22.807,30.739 23,30.739 C23.135,30.739 23.27,30.712 23.397,30.656 L37.962,24.351 C38.327,24.193 38.565,23.832 38.565,23.434 C38.565,23.036 38.328,22.675 37.963,22.517 L37.963,22.517 Z M24,28.217 L24,18.653 L35.048,23.435 L24,28.217 L24,28.217 Z" id="Shape"></path>
                </g>
            </g>
        </g>
    </g>
</svg>